<svg height="512" viewBox="0 0 64 64" width="512" xmlns="http://www.w3.org/2000/svg" xmlns:xlink="http://www.w3.org/1999/xlink"><linearGradient id="New_Gradient_Swatch_2" gradientUnits="userSpaceOnUse" x1="32" x2="32" y1=".784" y2="61.69"><stop offset="0" stop-color="#fc5c7d"/><stop offset=".129" stop-color="#f35e85"/><stop offset=".343" stop-color="#d9659b"/><stop offset=".616" stop-color="#b070bf"/><stop offset=".934" stop-color="#777ff0"/><stop offset="1" stop-color="#6a82fb"/></linearGradient><linearGradient id="New_Gradient_Swatch_2-2" x1="7" x2="7" xlink:href="#New_Gradient_Swatch_2" y1=".784" y2="61.69"/><linearGradient id="New_Gradient_Swatch_2-3" x1="19" x2="19" xlink:href="#New_Gradient_Swatch_2" y1=".784" y2="61.69"/><linearGradient id="New_Gradient_Swatch_2-4" x1="57.358" x2="57.358" xlink:href="#New_Gradient_Swatch_2" y1=".784" y2="61.69"/><linearGradient id="New_Gradient_Swatch_2-5" x1="45" x2="45" xlink:href="#New_Gradient_Swatch_2" y1=".784" y2="61.69"/><linearGradient id="New_Gradient_Swatch_2-6" x1="56" x2="56" xlink:href="#New_Gradient_Swatch_2" y1=".784" y2="61.69"/><linearGradient id="New_Gradient_Swatch_2-7" x1="33" x2="33" xlink:href="#New_Gradient_Swatch_2" y1=".784" y2="61.69"/><path d="m38 25.033v-2.033a1 1 0 0 0 -1-1h-10a1 1 0 0 0 -1 1v2.033a17.995 17.995 0 0 0 0 33.934v2.033a1 1 0 0 0 1 1h10a1 1 0 0 0 1-1v-2.033a17.995 17.995 0 0 0 0-33.934zm-12 22.25a7.978 7.978 0 0 1 0-10.566zm2-10.283h8v6.586l-3 3-5-5zm10-.283a7.978 7.978 0 0 1 0 10.566zm-2-12.717v11h-8v-11zm-20 18a15.919 15.919 0 0 1 10-14.843v6.87a9.946 9.946 0 0 0 0 15.946v6.87a15.919 15.919 0 0 1 -10-14.843zm12 18v-15.586l4.293 4.293a1 1 0 0 0 1.414 0l2.293-2.293v13.586zm10-3.157v-6.87a9.946 9.946 0 0 0 0-15.946v-6.87a16.016 16.016 0 0 1 0 29.686z" fill="url(#New_Gradient_Swatch_2)"/><path d="m10 32a3 3 0 0 1 -2 2.816v-6.816h-2v6.816a3 3 0 0 1 -2-2.816v-4h-2v4a5.009 5.009 0 0 0 4 4.9v3.1h-1a1 1 0 0 0 -1 1v14a3 3 0 0 0 6 0v-14a1 1 0 0 0 -1-1h-1v-3.1a5.009 5.009 0 0 0 4-4.9v-4h-2zm-2 23a1 1 0 0 1 -2 0v-13h2z" fill="url(#New_Gradient_Swatch_2-2)"/><path d="m28.542 9a9.979 9.979 0 0 0 -18.192-1.965c-.118-.008-.23-.035-.35-.035h-2a5 5 0 0 0 0 10h2c.12 0 .232-.027.35-.035a9.979 9.979 0 0 0 18.192-1.965h3.458a3 3 0 0 0 0-6zm-9.542-5a8.068 8.068 0 0 1 7.416 5h-8.416a1 1 0 0 0 -1 1v1h-2.1a5 5 0 0 0 -2.574-3.4 8.042 8.042 0 0 1 6.674-3.6zm-14 8a3 3 0 0 1 3-3h2a3 3 0 0 1 0 6h-2a3 3 0 0 1 -3-3zm14 8a8.042 8.042 0 0 1 -6.675-3.6 5 5 0 0 0 2.575-3.4h2.1v1a1 1 0 0 0 1 1h8.416a8.068 8.068 0 0 1 -7.416 5zm14-8a1 1 0 0 1 -1 1h-13v-2h13a1 1 0 0 1 1 1z" fill="url(#New_Gradient_Swatch_2-3)"/><path d="m54 28a1 1 0 0 0 -1 1v26a3 3 0 0 0 6 0v-5.155a3.673 3.673 0 0 0 2.7-3.93l-1.2-12.039a6.506 6.506 0 0 0 -6.5-5.876zm3 27a1 1 0 0 1 -2 0v-5h2zm2.271-7.564a1.692 1.692 0 0 1 -1.271.564h-3v-17.89a4.509 4.509 0 0 1 3.5 3.965l1.2 12.039a1.7 1.7 0 0 1 -.429 1.322z" fill="url(#New_Gradient_Swatch_2-4)"/><path d="m39 8a6 6 0 1 0 6-6 6.006 6.006 0 0 0 -6 6zm10 0a4 4 0 1 1 -4-4 4 4 0 0 1 4 4z" fill="url(#New_Gradient_Swatch_2-5)"/><path d="m56 11a6 6 0 1 0 6 6 6.006 6.006 0 0 0 -6-6zm0 10a4 4 0 1 1 4-4 4 4 0 0 1 -4 4z" fill="url(#New_Gradient_Swatch_2-6)"/><path d="m32 39h2v2h-2z" fill="url(#New_Gradient_Swatch_2-7)"/></svg>