<svg height="512" viewBox="0 0 64 64" width="512" xmlns="http://www.w3.org/2000/svg" xmlns:xlink="http://www.w3.org/1999/xlink"><linearGradient id="New_Gradient_Swatch_2" gradientUnits="userSpaceOnUse" x1="42.417" x2="42.417" y1="4.862" y2="60.562"><stop offset="0" stop-color="#fc5c7d"/><stop offset=".129" stop-color="#f35e85"/><stop offset=".343" stop-color="#d9659b"/><stop offset=".616" stop-color="#b070bf"/><stop offset=".934" stop-color="#777ff0"/><stop offset="1" stop-color="#6a82fb"/></linearGradient><linearGradient id="New_Gradient_Swatch_2-2" x1="21.062" x2="21.062" xlink:href="#New_Gradient_Swatch_2" y1="4.862" y2="60.562"/><linearGradient id="New_Gradient_Swatch_2-3" x1="33" x2="33" xlink:href="#New_Gradient_Swatch_2" y1="4.862" y2="60.562"/><linearGradient id="New_Gradient_Swatch_2-4" x1="23.107" x2="23.107" xlink:href="#New_Gradient_Swatch_2" y1="4.862" y2="60.562"/><linearGradient id="New_Gradient_Swatch_2-5" x1="49.839" x2="49.839" xlink:href="#New_Gradient_Swatch_2" y1="4.862" y2="60.562"/><linearGradient id="New_Gradient_Swatch_2-6" x1="15.171" x2="15.171" xlink:href="#New_Gradient_Swatch_2" y1="4.862" y2="60.562"/><linearGradient id="New_Gradient_Swatch_2-7" x1="4.009" x2="4.009" xlink:href="#New_Gradient_Swatch_2" y1="4.862" y2="60.562"/><path d="m55 32a23.021 23.021 0 0 1 -26.834 22.682l-.332 1.972a25 25 0 0 0 20.7-43.4l-1.323 1.5a23.021 23.021 0 0 1 7.789 17.246z" fill="url(#New_Gradient_Swatch_2)"/><path d="m7 32a25.066 25.066 0 0 0 5.483 15.625l1.561-1.25a22.752 22.752 0 0 1 -5.044-14.375 23.026 23.026 0 0 1 23-23 23.326 23.326 0 0 1 2.876.178l.248-1.985a25.4 25.4 0 0 0 -3.124-.193 25.028 25.028 0 0 0 -25 25z" fill="url(#New_Gradient_Swatch_2-2)"/><path d="m13.223 53.629c.023.028.057.04.083.065l-.013.013 3.2 3.2a3.986 3.986 0 0 0 5.158.427l13.193-9.422 13.438-3.953a1 1 0 0 0 .7-1.165l-1.567-7.44 4.863-1.393a1 1 0 0 0 .644-1.355l-12-28h-.01a.989.989 0 0 0 -1.788-.086l-26 48a1 1 0 0 0 .099 1.109zm7.264 2.078a1.994 1.994 0 0 1 -2.58-.214l-2.007-2.009 13.094-3.851zm26.513-22.315-3.94-18.716 7.575 17.675zm-7.417-25.521 7.248 34.429-30.807 9.062z" fill="url(#New_Gradient_Swatch_2-3)"/><path d="m29.213 19.3-.426-1.954a15.012 15.012 0 0 0 -10.715 20.232l1.856-.745a12.928 12.928 0 0 1 -.928-4.833 13.069 13.069 0 0 1 10.213-12.7z" fill="url(#New_Gradient_Swatch_2-4)"/><path d="m38.751 58.149.5 1.937a28.935 28.935 0 0 0 21.676-26.016l-1.995-.14a26.937 26.937 0 0 1 -20.181 24.219z" fill="url(#New_Gradient_Swatch_2-5)"/><path d="m27.177 5.43-.354-1.969a29.111 29.111 0 0 0 -23.658 25.433l1.988.212a27.1 27.1 0 0 1 22.024-23.676z" fill="url(#New_Gradient_Swatch_2-6)"/><path d="m5.017 32.965q-.017-.48-.017-.965t.017-.965l-2-.07c-.011.344-.017.688-.017 1.035s.006.691.018 1.035z" fill="url(#New_Gradient_Swatch_2-7)"/></svg>